<svg height="512" viewBox="0 0 128 128" width="512" xmlns="http://www.w3.org/2000/svg"><g id="icon"><path d="m62.561 9.54v103.7a9.553 9.553 0 1 1 -19.106 0v-2.609h-3.955v2.609a13.511 13.511 0 0 0 27.022 0v-103.7z" fill="#b0b3c1"/><path d="m53.008 127.75a14.528 14.528 0 0 1 -14.508-14.512v-2.609a1 1 0 0 1 1-1h3.958a1 1 0 0 1 1 1v2.609a8.554 8.554 0 1 0 17.107 0v-103.698a1 1 0 0 1 1-1h3.957a1 1 0 0 1 1 1v103.7a14.528 14.528 0 0 1 -14.514 14.51zm-12.508-16.121v1.609a12.511 12.511 0 1 0 25.022 0v-102.698h-1.96v102.7a10.554 10.554 0 1 1 -21.107 0v-1.609z" fill="#2f3a5a"/><path d="m53.008 127.249a14.026 14.026 0 0 1 -14.008-14.01v-3.11h4.958v3.11a9.053 9.053 0 0 0 18.106 0v-14.688h4.956v14.688a14.027 14.027 0 0 1 -14.012 14.01z" fill="#e1b378"/><path d="m67.02 98.551v14.69a14.032 14.032 0 0 1 -14.01 14.01 13.858 13.858 0 0 1 -8.55-2.93 14.015 14.015 0 0 0 20.08-12.63v-13.14z" fill="#bd8d5a"/><path d="m53.008 128.249a15.027 15.027 0 0 1 -15.008-15.011v-3.109a1 1 0 0 1 1-1h4.958a1 1 0 0 1 1 1v3.109a8.053 8.053 0 1 0 16.106 0v-14.687a1 1 0 0 1 1-1h4.956a1 1 0 0 1 1 1v14.687a15.029 15.029 0 0 1 -15.012 15.011zm-13.008-17.12v2.109a13.012 13.012 0 0 0 26.023 0v-13.687h-2.962v13.687a10.053 10.053 0 1 1 -20.106 0v-2.109z" fill="#2f3a5a"/><path d="m126.878 65.607a62.578 62.578 0 0 0 -124.676 0c11.953-7.512 23.761-6.621 35.469 0q26.87-13.269 53.738 0c12.138-6.967 23.996-7.743 35.469 0z" fill="#ef5361"/><path d="m63.34 8.531c-23.67.72-43.18 22.92-47.05 51.94a33.055 33.055 0 0 0 -14.09 5.14 62.573 62.573 0 0 1 61.14-57.08z" fill="#da2a47"/><path d="m126.88 65.611a30.65 30.65 0 0 0 -14.13-5.37c-3.94-28.91-23.4-50.99-47.01-51.71a62.573 62.573 0 0 1 61.14 57.08z" fill="#da2a47"/><path d="m126.878 66.607a1.009 1.009 0 0 1 -.56-.17c-10.621-7.17-21.877-7.157-34.411.038a1 1 0 0 1 -.94.029c-17.535-8.659-35.319-8.659-52.854 0a.994.994 0 0 1 -.934-.026c-12.212-6.907-23.479-6.916-34.445-.024a1 1 0 0 1 -1.528-.933 63.578 63.578 0 0 1 126.668 0 1 1 0 0 1 -1 1.086zm-107.418-7.341c5.9 0 11.957 1.737 18.242 5.213 17.811-8.64 35.864-8.64 53.673 0 12.219-6.856 23.745-7.131 34.3-.823a61.581 61.581 0 0 0 -122.275.072 32.262 32.262 0 0 1 16.06-4.462z" fill="#2f3a5a"/><path d="m91.409 65.607c-1.2-31.995-12.767-57.1-26.869-57.1s-25.67 25.106-26.869 57.1c16.448-8.762 34.361-8.957 53.738 0z" fill="#dbe2eb"/><path d="m91.409 66.607a1 1 0 0 1 -.42-.092c-18.792-8.687-36.573-8.7-52.848-.025a1 1 0 0 1 -1.469-.92c1.24-33.1 13.222-58.064 27.868-58.064s26.627 24.962 27.868 58.064a1 1 0 0 1 -1 1.037zm-27.819-8.624a66.293 66.293 0 0 1 26.75 6.045c-1.5-30.7-12.7-54.522-25.8-54.522s-24.274 23.768-25.8 54.423a55.176 55.176 0 0 1 24.85-5.946z" fill="#2f3a5a"/><path d="m64.54.749-5.976 7.757h11.952z" fill="#9297ab"/><path d="m70.516 9.506h-11.952a1 1 0 0 1 -.792-1.61l5.976-7.757a1.036 1.036 0 0 1 1.584 0l5.976 7.761a1 1 0 0 1 -.792 1.61zm-9.918-2h7.884l-3.942-5.118z" fill="#2f3a5a"/></g></svg>